<svg width="465" height="368" viewBox="0 0 465 368" fill="none" xmlns="http://www.w3.org/2000/svg">
<path d="M388.29 81.6964C292.81 16.0548 129.609 27.8058 40.2336 73.8638C6.36219 91.3183 -18.6337 153.175 71.98 186.324C121.818 204.556 267.205 245.435 376.31 259.073C485.416 272.712 459.901 130.928 388.29 81.6964Z" fill="#F8DADA" stroke="#2A3B41"/>
<path d="M390.014 208.627C334.308 208.404 258.489 245.453 290.095 313.523C337.828 374.894 410.289 372.608 445.072 290.314C468.157 235.698 429.969 208.786 390.014 208.627Z" fill="#689AD5" fill-opacity="0.6" stroke="#2A3B41"/>
<path d="M225.97 284.952C181.576 274.47 110.167 255.186 94.8905 210.366C76.6799 174.55 114.802 143.146 244.223 149.46C373.644 155.774 358.67 258.162 353.51 278.7C340.094 332.099 280.964 297.936 225.97 284.952Z" fill="#FFFDD5" fill-opacity="0.3" stroke="#2A3B41"/>
</svg>
